<svg width="1077" height="902" viewBox="0 0 1077 902" fill="none" xmlns="http://www.w3.org/2000/svg">
<rect width="1077" height="902" fill="#1E1E1E"/>
<g id="Frame">
<g clip-path="url(#clip0_0_1)">
<rect width="1077" height="902" rx="2" fill="#3C3C3C"/>
<g id="Clip path group">
<mask id="mask0_0_1" style="mask-type:luminance" maskUnits="userSpaceOnUse" x="0" y="0" width="1077" height="902">
<g id="clip0_16906_44754">
<path id="Vector" d="M0 0H1077V902H0V0Z" fill="white"/>
</g>
</mask>
<g mask="url(#mask0_0_1)">
<g id="Group">
<path id="Vector_2" d="M0 0H1077V47H0V0Z" fill="white"/>
<g id="Mask group">
<mask id="mask1_0_1" style="mask-type:luminance" maskUnits="userSpaceOnUse" x="0" y="0" width="1077" height="47">
<g id="Group_2">
<path id="Vector_3" d="M1075.5 1.5V45.5H1.5V1.5H1075.5Z" fill="white" stroke="black" stroke-width="3"/>
</g>
</mask>
<g mask="url(#mask1_0_1)">
<path id="Vector_4" d="M1077 47V46H0V47V48H1077V47Z" fill="#242424" fill-opacity="0.26"/>
</g>
</g>
<path id="Vector_5" d="M1077 47H0V902H1077V47Z" fill="white"/>
<g id="Clip path group_2">
<mask id="mask2_0_1" style="mask-type:luminance" maskUnits="userSpaceOnUse" x="0" y="47" width="837" height="855">
<g id="clip1_16906_44754">
<path id="Vector_6" d="M837 47H0V902H837V47Z" fill="white"/>
</g>
</mask>
<g mask="url(#mask2_0_1)">
<g id="Group_3">
<path id="Vector_7" d="M837 47H0V902H837V47Z" fill="white"/>
<path id="Vector_8" d="M905 168H87V782H905V168Z" fill="#F5F5F5"/>
<path id="Vector_9" d="M505.303 492.647C505.108 492.842 505.107 493.159 505.302 493.354C505.498 493.549 505.814 493.55 506.01 493.354L505.656 493.001L505.303 492.647ZM543.648 500.384C543.843 500.579 544.159 500.58 544.355 500.384C544.55 500.189 544.55 499.873 544.355 499.677L544.001 500.031L543.648 500.384ZM447.646 494.989C447.451 495.185 447.451 495.501 447.646 495.697C447.842 495.892 448.158 495.892 448.354 495.696L448 495.343L447.646 494.989ZM527.301 515.351C527.497 515.547 527.813 515.547 528.009 515.352C528.204 515.156 528.204 514.84 528.009 514.644L527.655 514.998L527.301 515.351ZM452 435V435.5H540V435V434.5H452V435ZM540 435V435.5C541.933 435.5 543.5 437.067 543.5 439H544H544.5C544.5 436.515 542.485 434.5 540 434.5V435ZM544 439H543.5V511H544H544.5V439H544ZM544 511H543.5C543.5 512.933 541.933 514.5 540 514.5V515V515.5C542.485 515.5 544.5 513.485 544.5 511H544ZM540 515V514.5H452V515V515.5H540V515ZM452 515V514.5C450.067 514.5 448.5 512.933 448.5 511H448H447.5C447.5 513.485 449.515 515.5 452 515.5V515ZM448 511H448.5V439H448H447.5V511H448ZM448 439H448.5C448.5 437.067 450.067 435.5 452 435.5V435V434.5C449.515 434.5 447.5 436.515 447.5 439H448ZM512 461H511.5C511.5 461.828 510.828 462.5 510 462.5V463V463.5C511.381 463.5 512.5 462.381 512.5 461H512ZM510 463V462.5C509.172 462.5 508.5 461.828 508.5 461H508H507.5C507.5 462.381 508.619 463.5 510 463.5V463ZM508 461H508.5C508.5 460.172 509.172 459.5 510 459.5V459V458.5C508.619 458.5 507.5 459.619 507.5 461H508ZM510 459V459.5C510.828 459.5 511.5 460.172 511.5 461H512H512.5C512.5 459.619 511.381 458.5 510 458.5V459ZM505.656 493.001L506.01 493.354L518.855 480.524L518.501 480.171L518.148 479.817L505.303 492.647L505.656 493.001ZM518.501 480.171L518.855 480.524C519.511 479.868 520.401 479.5 521.329 479.5V479V478.5C520.136 478.5 518.992 478.974 518.148 479.817L518.501 480.171ZM521.329 479V479.5C522.257 479.5 523.146 479.868 523.803 480.524L524.156 480.171L524.51 479.817C523.666 478.974 522.522 478.5 521.329 478.5V479ZM524.156 480.171L523.803 480.524L543.648 500.384L544.001 500.031L544.355 499.677L524.51 479.817L524.156 480.171ZM448 495.343L448.354 495.696L475.524 468.521L475.17 468.168L474.816 467.814L447.646 494.989L448 495.343ZM475.17 468.168L475.524 468.521C475.849 468.196 476.235 467.938 476.66 467.762L476.468 467.3L476.277 466.838C475.73 467.064 475.234 467.396 474.816 467.815L475.17 468.168ZM476.468 467.3L476.66 467.762C477.085 467.585 477.54 467.495 478 467.495V466.995V466.495C477.409 466.495 476.823 466.611 476.277 466.838L476.468 467.3ZM478 466.995V467.495C478.46 467.495 478.915 467.585 479.34 467.762L479.532 467.3L479.723 466.838C479.177 466.611 478.591 466.495 478 466.495V466.995ZM479.532 467.3L479.34 467.762C479.765 467.938 480.151 468.196 480.476 468.521L480.83 468.168L481.184 467.815C480.766 467.396 480.27 467.064 479.723 466.838L479.532 467.3ZM480.83 468.168L480.476 468.521L527.301 515.351L527.655 514.998L528.009 514.644L481.184 467.814L480.83 468.168Z" fill="#242424" fill-opacity="0.3"/>
</g>
</g>
</g>
<path id="Vector_10" d="M837 47H1077V902H837V47Z" fill="white"/>
<g id="Mask group_2">
<mask id="mask3_0_1" style="mask-type:luminance" maskUnits="userSpaceOnUse" x="837" y="47" width="240" height="855">
<g id="Group_4">
<path id="Vector_11" d="M837 47H1077V902H837V47Z" fill="white"/>
</g>
</mask>
<g mask="url(#mask3_0_1)">
<path id="Vector_12" d="M837 902H838V47H837H836V902H837Z" fill="white"/>
</g>
</g>
<g id="Clip path group_3">
<mask id="mask4_0_1" style="mask-type:luminance" maskUnits="userSpaceOnUse" x="910" y="852" width="158" height="32">
<g id="clip7_16906_44754">
<path id="Vector_13" d="M1068 852H910V884H1068V852Z" fill="white"/>
</g>
</mask>
<g mask="url(#mask4_0_1)">
<g id="Group_5">
<path id="Vector_14" d="M914 852.5H984C985.933 852.5 987.5 854.067 987.5 856V880C987.5 881.933 985.933 883.5 984 883.5H914C912.067 883.5 910.5 881.933 910.5 880V856C910.5 854.067 912.067 852.5 914 852.5Z" fill="#0F6CBD"/>
<path id="Vector_15" d="M914 852.5H984C985.933 852.5 987.5 854.067 987.5 856V880C987.5 881.933 985.933 883.5 984 883.5H914C912.067 883.5 910.5 881.933 910.5 880V856C910.5 854.067 912.067 852.5 914 852.5Z" stroke="#0F6CBD"/>
<path id="Vector_16" d="M931.391 873.59C930.652 873.973 929.734 874.164 928.636 874.164C927.214 874.164 926.075 873.715 925.218 872.817C924.361 871.92 923.933 870.742 923.933 869.283C923.933 867.715 924.413 866.449 925.375 865.482C926.341 864.516 927.56 864.033 929.032 864.033C929.98 864.033 930.766 864.168 931.391 864.437V866.05C930.73 865.658 930.001 865.462 929.203 865.462C928.141 865.462 927.28 865.801 926.619 866.48C925.963 867.16 925.635 868.066 925.635 869.201C925.635 870.281 925.942 871.143 926.558 871.785C927.173 872.423 927.982 872.742 928.984 872.742C929.91 872.742 930.712 872.523 931.391 872.086V873.59ZM936.176 874.164C935.096 874.164 934.232 873.838 933.585 873.187C932.942 872.53 932.621 871.662 932.621 870.582C932.621 869.406 932.956 868.488 933.626 867.827C934.3 867.166 935.207 866.836 936.347 866.836C937.44 866.836 938.293 867.157 938.903 867.8C939.514 868.442 939.819 869.333 939.819 870.473C939.819 871.589 939.489 872.485 938.828 873.159C938.172 873.829 937.288 874.164 936.176 874.164ZM936.251 868.101C935.631 868.101 935.141 868.317 934.781 868.75C934.421 869.183 934.241 869.78 934.241 870.541C934.241 871.275 934.424 871.854 934.788 872.277C935.153 872.697 935.64 872.906 936.251 872.906C936.875 872.906 937.354 872.699 937.687 872.284C938.024 871.869 938.192 871.279 938.192 870.514C938.192 869.743 938.024 869.149 937.687 868.729C937.354 868.31 936.875 868.101 936.251 868.101ZM947.674 874H946.088V870.056C946.088 868.748 945.625 868.094 944.7 868.094C944.217 868.094 943.818 868.276 943.504 868.641C943.189 869.001 943.032 869.456 943.032 870.008V874H941.439V867H943.032V868.162H943.06C943.584 867.278 944.34 866.836 945.329 866.836C946.09 866.836 946.671 867.084 947.072 867.581C947.473 868.073 947.674 868.786 947.674 869.721V874ZM953.573 864.929C953.359 864.806 953.115 864.744 952.842 864.744C952.072 864.744 951.687 865.179 951.687 866.05V867H953.313V868.244H951.693V874H950.107V868.244H948.911V867H950.107V865.865C950.107 865.127 950.349 864.546 950.832 864.122C951.315 863.694 951.919 863.479 952.644 863.479C953.035 863.479 953.345 863.523 953.573 863.609V864.929ZM955.241 865.53C954.981 865.53 954.758 865.446 954.571 865.277C954.389 865.109 954.298 864.895 954.298 864.635C954.298 864.375 954.389 864.159 954.571 863.985C954.758 863.812 954.981 863.726 955.241 863.726C955.51 863.726 955.738 863.812 955.925 863.985C956.112 864.159 956.205 864.375 956.205 864.635C956.205 864.881 956.112 865.093 955.925 865.271C955.738 865.444 955.51 865.53 955.241 865.53ZM956.027 874H954.441V867H956.027V874ZM962.166 868.511C961.975 868.36 961.699 868.285 961.339 868.285C960.869 868.285 960.478 868.497 960.163 868.921C959.849 869.345 959.691 869.921 959.691 870.65V874H958.105V867H959.691V868.442H959.719C959.874 867.95 960.111 867.567 960.43 867.294C960.753 867.016 961.113 866.877 961.51 866.877C961.797 866.877 962.016 866.92 962.166 867.007V868.511ZM973.753 874H972.167V870.186C972.167 869.452 972.062 868.921 971.853 868.593C971.647 868.265 971.299 868.101 970.807 868.101C970.392 868.101 970.039 868.308 969.747 868.723C969.46 869.137 969.316 869.634 969.316 870.213V874H967.724V870.056C967.724 868.752 967.263 868.101 966.343 868.101C965.914 868.101 965.561 868.297 965.283 868.688C965.01 869.08 964.873 869.589 964.873 870.213V874H963.287V867H964.873V868.107H964.9C965.406 867.26 966.142 866.836 967.108 866.836C967.591 866.836 968.013 866.97 968.373 867.239C968.738 867.504 968.986 867.852 969.118 868.285C969.638 867.319 970.412 866.836 971.442 866.836C972.983 866.836 973.753 867.786 973.753 869.687V874Z" fill="white"/>
<path id="Vector_17" d="M1000 856C1000 853.791 1001.79 852 1004 852H1064C1066.21 852 1068 853.791 1068 856V880C1068 882.209 1066.21 884 1064 884H1004C1001.79 884 1000 882.209 1000 880V856Z" fill="white"/>
<path id="Vector_18" d="M1004 852.5H1064C1065.93 852.5 1067.5 854.067 1067.5 856V880C1067.5 881.933 1065.93 883.5 1064 883.5H1004C1002.07 883.5 1000.5 881.933 1000.5 880V856C1000.5 854.067 1002.07 852.5 1004 852.5Z" stroke="#242424" stroke-opacity="0.26"/>
<path id="Vector_19" d="M1021.11 873.59C1020.37 873.973 1019.45 874.164 1018.35 874.164C1016.93 874.164 1015.79 873.715 1014.93 872.817C1014.08 871.92 1013.65 870.742 1013.65 869.283C1013.65 867.715 1014.13 866.449 1015.09 865.482C1016.06 864.516 1017.28 864.033 1018.75 864.033C1019.7 864.033 1020.48 864.168 1021.11 864.437V866.05C1020.45 865.658 1019.72 865.462 1018.92 865.462C1017.86 865.462 1017 865.801 1016.34 866.48C1015.68 867.16 1015.35 868.066 1015.35 869.201C1015.35 870.281 1015.66 871.143 1016.27 871.785C1016.89 872.423 1017.7 872.742 1018.7 872.742C1019.63 872.742 1020.43 872.523 1021.11 872.086V873.59ZM1028.16 874H1026.62V872.906H1026.6C1026.11 873.745 1025.4 874.164 1024.47 874.164C1023.78 874.164 1023.24 873.977 1022.85 873.604C1022.46 873.23 1022.27 872.735 1022.27 872.12C1022.27 870.799 1023.03 870.028 1024.55 869.81L1026.63 869.516C1026.63 868.518 1026.16 868.019 1025.21 868.019C1024.37 868.019 1023.62 868.306 1022.95 868.88V867.492C1023.69 867.055 1024.54 866.836 1025.51 866.836C1027.28 866.836 1028.16 867.706 1028.16 869.447V874ZM1026.63 870.562L1025.16 870.767C1024.7 870.826 1024.36 870.938 1024.13 871.102C1023.9 871.261 1023.79 871.544 1023.79 871.949C1023.79 872.245 1023.89 872.489 1024.1 872.681C1024.32 872.868 1024.6 872.961 1024.96 872.961C1025.44 872.961 1025.84 872.792 1026.15 872.455C1026.47 872.113 1026.63 871.685 1026.63 871.17V870.562ZM1036.34 874H1034.75V870.056C1034.75 868.748 1034.29 868.094 1033.36 868.094C1032.88 868.094 1032.48 868.276 1032.17 868.641C1031.85 869.001 1031.7 869.456 1031.7 870.008V874H1030.1V867H1031.7V868.162H1031.72C1032.25 867.278 1033 866.836 1033.99 866.836C1034.75 866.836 1035.33 867.084 1035.74 867.581C1036.14 868.073 1036.34 868.786 1036.34 869.721V874ZM1043.29 873.679C1042.73 874.002 1042.07 874.164 1041.3 874.164C1040.26 874.164 1039.42 873.84 1038.78 873.193C1038.15 872.542 1037.83 871.699 1037.83 870.664C1037.83 869.511 1038.17 868.586 1038.85 867.889C1039.54 867.187 1040.46 866.836 1041.61 866.836C1042.25 866.836 1042.81 866.948 1043.3 867.171V868.647C1042.81 868.283 1042.29 868.101 1041.74 868.101C1041.07 868.101 1040.52 868.328 1040.09 868.784C1039.66 869.235 1039.45 869.828 1039.45 870.562C1039.45 871.286 1039.65 871.858 1040.05 872.277C1040.45 872.697 1041 872.906 1041.68 872.906C1042.25 872.906 1042.78 872.703 1043.29 872.298V873.679ZM1050.8 870.931H1046.02C1046.04 871.578 1046.24 872.077 1046.62 872.428C1047 872.779 1047.53 872.954 1048.19 872.954C1048.94 872.954 1049.62 872.731 1050.25 872.284V873.562C1049.61 873.964 1048.77 874.164 1047.72 874.164C1046.69 874.164 1045.88 873.847 1045.29 873.214C1044.71 872.576 1044.42 871.68 1044.42 870.527C1044.42 869.438 1044.74 868.552 1045.38 867.868C1046.03 867.18 1046.83 866.836 1047.79 866.836C1048.74 866.836 1049.49 867.144 1050.01 867.759C1050.53 868.374 1050.8 869.229 1050.8 870.322V870.931ZM1049.26 869.81C1049.26 869.24 1049.13 868.798 1048.86 868.483C1048.6 868.164 1048.23 868.005 1047.77 868.005C1047.31 868.005 1046.92 868.171 1046.6 868.504C1046.29 868.837 1046.1 869.272 1046.02 869.81H1049.26ZM1053.9 874H1052.31V863.637H1053.9V874Z" fill="#242424"/>
</g>
</g>
</g>
</g>
</g>
</g>
<foreignObject x="-23.9" y="-23.9" width="1124.8" height="949.8"><div xmlns="http://www.w3.org/1999/xhtml" style="backdrop-filter:blur(11.95px);clip-path:url(#bgblur_1_0_1_clip_path);height:100%;width:100%"></div></foreignObject><path id="Vector_20" data-figma-bg-blur-radius="23.9" d="M1076.5 0.5V901.5H0.5V0.5H1076.5Z" stroke="#242424" stroke-opacity="0.26"/>
<g id="Frame_2" clip-path="url(#clip2_0_1)">
<path id="Vector_21" d="M236 8H814V55H236V8Z" fill="white"/>
<path id="Vector_22" d="M249 19C249 16.7909 250.791 15 253 15H277C279.209 15 281 16.7909 281 19V43C281 45.2091 279.209 47 277 47H253C250.791 47 249 45.2091 249 43V19Z" fill="white"/>
<path id="Vector_23" d="M253 15.5H277C278.933 15.5 280.5 17.067 280.5 19V43C280.5 44.933 278.933 46.5 277 46.5H253C251.067 46.5 249.5 44.933 249.5 43V19C249.5 17.067 251.067 15.5 253 15.5Z" stroke="#242424" stroke-opacity="0.26"/>
<path id="Vector_24" d="M269 33.5007C269 33.6387 268.888 33.7507 268.75 33.7507C268.612 33.7507 268.5 33.6387 268.5 33.5007C268.5 33.3626 268.612 33.2507 268.75 33.2507C268.888 33.2507 269 33.3626 269 33.5007Z" fill="#242424"/>
<path id="Vector_25" d="M268 31H271C271.133 31 271.26 31.0527 271.354 31.1464C271.447 31.2402 271.5 31.3674 271.5 31.5V35.5C271.5 35.6326 271.447 35.7598 271.354 35.8536C271.26 35.9473 271.133 36 271 36H259C258.867 36 258.74 35.9473 258.646 35.8536C258.553 35.7598 258.5 35.6326 258.5 35.5V31.5C258.5 31.3674 258.553 31.2402 258.646 31.1464C258.74 31.0527 258.867 31 259 31H262M265 31V24.5M262 27.5L265 24.5L268 27.5M269 33.5007C269 33.6387 268.888 33.7507 268.75 33.7507C268.612 33.7507 268.5 33.6387 268.5 33.5007C268.5 33.3626 268.612 33.2507 268.75 33.2507C268.888 33.2507 269 33.3626 269 33.5007Z" stroke="#242424" stroke-linecap="round" stroke-linejoin="round"/>
<path id="Vector_26" d="M293 19C293 16.7909 294.791 15 297 15H321C323.209 15 325 16.7909 325 19V43C325 45.2091 323.209 47 321 47H297C294.791 47 293 45.2091 293 43V19Z" fill="white"/>
<path id="Vector_27" d="M297 15.5H321C322.933 15.5 324.5 17.067 324.5 19V43C324.5 44.933 322.933 46.5 321 46.5H297C295.067 46.5 293.5 44.933 293.5 43V19C293.5 17.067 295.067 15.5 297 15.5Z" stroke="#242424" stroke-opacity="0.26"/>
<path id="Vector_28" d="M309 32V25M311.5 29.5L309 32L306.5 29.5M314.5 32V36H303.5V32" stroke="#242424" stroke-linecap="round" stroke-linejoin="round"/>
<path id="Vector_29" d="M338 21H337V41H338V21Z" fill="#242424" fill-opacity="0.26"/>
<path id="Vector_30" d="M350 19C350 16.7909 351.791 15 354 15H378C380.209 15 382 16.7909 382 19V43C382 45.2091 380.209 47 378 47H354C351.791 47 350 45.2091 350 43V19Z" fill="#242424" fill-opacity="0.07"/>
<path id="Vector_31" d="M354 15.5H378C379.933 15.5 381.5 17.067 381.5 19V43C381.5 44.933 379.933 46.5 378 46.5H354C352.067 46.5 350.5 44.933 350.5 43V19C350.5 17.067 352.067 15.5 354 15.5Z" stroke="#242424" stroke-opacity="0.14"/>
<path id="Vector_32" d="M363 31.5L360 28.5L363 25.5M360 28.5H368.5C369.428 28.5 370.318 28.8687 370.975 29.5251C371.631 30.1815 372 31.0717 372 32C372 32.9283 371.631 33.8185 370.975 34.4749C370.318 35.1313 369.428 35.5 368.5 35.5H363" stroke="#242424" stroke-opacity="0.3" stroke-linecap="round" stroke-linejoin="round"/>
<path id="Vector_33" d="M394 19C394 16.7909 395.791 15 398 15H422C424.209 15 426 16.7909 426 19V43C426 45.2091 424.209 47 422 47H398C395.791 47 394 45.2091 394 43V19Z" fill="#242424" fill-opacity="0.07"/>
<path id="Vector_34" d="M398 15.5H422C423.933 15.5 425.5 17.067 425.5 19V43C425.5 44.933 423.933 46.5 422 46.5H398C396.067 46.5 394.5 44.933 394.5 43V19C394.5 17.067 396.067 15.5 398 15.5Z" stroke="#242424" stroke-opacity="0.14"/>
<path id="Vector_35" d="M413 31.5L416 28.5L413 25.5M416 28.5H407.5C406.572 28.5 405.682 28.8687 405.025 29.5251C404.369 30.1815 404 31.0717 404 32C404 32.9283 404.369 33.8185 405.025 34.4749C405.682 35.1313 406.572 35.5 407.5 35.5H413" stroke="#242424" stroke-opacity="0.3" stroke-linecap="round" stroke-linejoin="round"/>
<path id="Vector_36" d="M439 21H438V41H439V21Z" fill="#242424" fill-opacity="0.26"/>
<path id="Vector_37" d="M451 19C451 16.7909 452.791 15 455 15H479C481.209 15 483 16.7909 483 19V43C483 45.2091 481.209 47 479 47H455C452.791 47 451 45.2091 451 43V19Z" fill="white"/>
<path id="Vector_38" d="M455 15.5H479C480.933 15.5 482.5 17.067 482.5 19V43C482.5 44.933 480.933 46.5 479 46.5H455C453.067 46.5 451.5 44.933 451.5 43V19C451.5 17.067 453.067 15.5 455 15.5Z" stroke="#242424" stroke-opacity="0.26"/>
<path id="Vector_39" d="M463 24.5V35H473.5M460.5 27H463M465 27H471V33M471 35V37.5" stroke="#242424" stroke-linecap="round" stroke-linejoin="round"/>
<path id="Vector_40" d="M495 19C495 16.7909 496.791 15 499 15H523C525.209 15 527 16.7909 527 19V43C527 45.2091 525.209 47 523 47H499C496.791 47 495 45.2091 495 43V19Z" fill="white"/>
<path id="Vector_41" d="M499 15.5H523C524.933 15.5 526.5 17.067 526.5 19V43C526.5 44.933 524.933 46.5 523 46.5H499C497.067 46.5 495.5 44.933 495.5 43V19C495.5 17.067 497.067 15.5 499 15.5Z" stroke="#242424" stroke-opacity="0.26"/>
<path id="Vector_42" d="M513 26H516V29M516 26L512 30M509 36H506V33M506 36L510 32" stroke="#242424" stroke-linecap="round" stroke-linejoin="round"/>
<path id="Vector_43" d="M539 19C539 16.7909 540.791 15 543 15H567C569.209 15 571 16.7909 571 19V43C571 45.2091 569.209 47 567 47H543C540.791 47 539 45.2091 539 43V19Z" fill="white"/>
<path id="Vector_44" d="M543 15.5H567C568.933 15.5 570.5 17.067 570.5 19V43C570.5 44.933 568.933 46.5 567 46.5H543C541.067 46.5 539.5 44.933 539.5 43V19C539.5 17.067 541.067 15.5 543 15.5Z" stroke="#242424" stroke-opacity="0.26"/>
<path id="Vector_45" d="M552 30H556M557.535 33.5358L561 37.0002M554 28V32M559 30C559 32.7614 556.761 35 554 35C551.239 35 549 32.7614 549 30C549 27.2386 551.239 25 554 25C556.761 25 559 27.2386 559 30Z" stroke="#242424" stroke-linecap="round" stroke-linejoin="round"/>
<path id="Vector_46" d="M583 19C583 16.7909 584.791 15 587 15H611C613.209 15 615 16.7909 615 19V43C615 45.2091 613.209 47 611 47H587C584.791 47 583 45.2091 583 43V19Z" fill="white"/>
<path id="Vector_47" d="M587 15.5H611C612.933 15.5 614.5 17.067 614.5 19V43C614.5 44.933 612.933 46.5 611 46.5H587C585.067 46.5 583.5 44.933 583.5 43V19C583.5 17.067 585.067 15.5 587 15.5Z" stroke="#242424" stroke-opacity="0.26"/>
<path id="Vector_48" d="M596 30H600M601.535 33.5358L605 37.0002M603 30C603 32.7614 600.761 35 598 35C595.239 35 593 32.7614 593 30C593 27.2386 595.239 25 598 25C600.761 25 603 27.2386 603 30Z" stroke="#242424" stroke-linecap="round" stroke-linejoin="round"/>
<g id="Mask group_3">
<mask id="mask5_0_1" style="mask-type:luminance" maskUnits="userSpaceOnUse" x="627" y="15" width="174" height="32">
<g id="Group_6">
<path id="Vector_49" d="M627 19C627 16.7909 628.791 15 631 15H797C799.209 15 801 16.7909 801 19V43C801 45.2091 799.209 47 797 47H631C628.791 47 627 45.2091 627 43V19Z" fill="white"/>
</g>
</mask>
<g mask="url(#mask5_0_1)">
<path id="Vector_50" d="M801 43C801 45.7614 798.761 48 796 48H632C629.239 48 627 45.7614 627 43C627 44.6569 628.791 46 631 46H797C799.209 46 801 44.6569 801 43Z" fill="#242424" fill-opacity="0.72"/>
</g>
</g>
<path id="Vector_51" d="M627 19C627 16.7909 628.791 15 631 15H797C799.209 15 801 16.7909 801 19V42C801 44.2091 799.209 46 797 46H631C628.791 46 627 44.2091 627 42V19Z" fill="white"/>
<g id="Mask group_4">
<mask id="mask6_0_1" style="mask-type:luminance" maskUnits="userSpaceOnUse" x="627" y="15" width="174" height="31">
<g id="Group_7">
<path id="Vector_52" d="M627 19C627 16.7909 628.791 15 631 15H797C799.209 15 801 16.7909 801 19V42C801 44.2091 799.209 46 797 46H631C628.791 46 627 44.2091 627 42V19Z" fill="white"/>
</g>
</mask>
<g mask="url(#mask6_0_1)">
<path id="Vector_53" d="M626 19C626 16.2386 628.239 14 631 14H797C799.761 14 802 16.2386 802 19H800C800 17.3432 798.657 16 797 16H631C629.343 16 628 17.3432 628 19H626ZM631 46C628.239 46 626 43.7614 626 41V19C626 16.2386 628.239 14 631 14V16C629.343 16 628 17.3432 628 19V42C628 44.2091 629.343 46 631 46ZM797 14C799.761 14 802 16.2386 802 19V41C802 43.7614 799.761 46 797 46C798.657 46 800 44.2091 800 42V19C800 17.3432 798.657 16 797 16V14Z" fill="#242424" fill-opacity="0.26"/>
</g>
</g>
</g>
</g>
</g>
<defs>
<clipPath id="bgblur_1_0_1_clip_path" transform="translate(23.9 23.9)"><path d="M1076.5 0.5V901.5H0.5V0.5H1076.5Z"/>
</clipPath><clipPath id="clip0_0_1">
<rect width="1077" height="902" rx="2" fill="white"/>
</clipPath>
<clipPath id="clip2_0_1">
<rect width="578" height="47" fill="white" transform="translate(236 8)"/>
</clipPath>
</defs>
</svg>
